#!OML:ASF F:\VICON\USERDATA\INSTALL\rory3\rory3.ASF
:FULLY-SPECIFIED
:DEGREES
57
root -0.6537378378435094 17.705843079343044 15.973206689584872 3.9387173117602385 0.8539743468001676 -1.4518590703778473
lfemur -24.59866474404207 -0.8007939688770034 -23.172099860546655
ltibia 45.55091754750731
lfoot 4.070868154396442 -10.335871180142169
ltoes -14.360112816432517
rfemur -14.692464297612759 0.67082307009585 28.382619849387446
rtibia 54.453675609699
rfoot 11.553518315830678 -8.944390935864343
rtoes 13.900211344436286
lowerback 14.518358486891268 1.7214540071385445 3.3960483130881594
upperback -1.520566666559159 2.7847241934842026 0.8263198500408707
thorax -8.653315715647166 1.3710923260477756 -1.6945884033004197
lowerneck -19.051878118745037 -4.149808236519017 -2.9907933636903143
upperneck 10.89509133203055 -6.999585348249611 3.8759819055315363
head 6.9703614394856075 -2.9586294974487286 0.6219245950282206
lclavicle -6.516325203714453e-16 -4.874152082515453e-15
lhumerus -62.69474890961183 -7.217981902931766 93.46850562211606
lradius 106.88629847468098
lwrist 26.665399311919785
lhand -31.21188304568989 0.8517897307741332
lfingers 7.125019999999998
lthumb -4.6916870666096 30.598245686341933
rclavicle -6.488445030626147e-16 -4.861470902819079e-15
rhumerus -50.53677132046654 12.066446547560082 -98.23695967698765
rradius 123.89392906884443
rwrist -16.844319627647813
rhand -18.130721781174525 37.54087733889712
rfingers 7.125019999999998
rthumb 7.983773723084418 7.828112189833416
58
root -0.6309030387833712 17.695127416946367 17.05335893760357 3.8247999247427638 0.8977257990016381 -1.0348841112605403
lfemur -21.358506489440245 -0.11181059631119572 -24.715376397815547
ltibia 47.81238772523352
lfoot 4.013188383302167 -9.381214440323447
ltoes -12.732561974225035
rfemur -17.29743842218857 0.16760853913413776 27.97214792553296
rtibia 66.99262568587429
rfoot 12.83064952542096 -9.022132255319237
rtoes 12.111048006569137
lowerback 14.995723405464041 1.6885568281146646 2.7317065108605734
upperback -1.4053970648978615 2.5788574647482156 0.5015160930243181
thorax -8.607354544875934 1.392604561064205 -1.6916435788685082
lowerneck -19.014409815830085 -4.065844185815371 -2.9790354253242723
upperneck 10.831489500990363 -6.9804430797292 3.9412640587683763
head 6.946686319558707 -2.934795409134666 0.6500984548488704
lclavicle -6.516337606734553e-16 -4.8741520980954e-15
lhumerus -61.738697902208145 -7.702408209709863 93.71390569679174
lradius 108.4970996982344
lwrist 26.896356987117436
lhand -31.204394599061096 0.9522823110553468
lfingers 7.125019999999998
lthumb -4.692952224431513 30.699323298738932
rclavicle -6.488437430331163e-16 -4.861470359011599e-15
rhumerus -51.24045429396362 12.110926976697687 -98.1417236828494
rradius 123.75749327838739
rwrist -16.203562096640507
rhand -18.114754627713513 37.59548496884618
rfingers 7.125019999999998
rthumb 8.028008610706049 7.949042284714525
59
root -0.6110293326198698 17.68893293410742 18.014742805955287 3.7626023448585424 0.973603520407575 -0.6169307889353755
lfemur -18.37353684735579 0.2581578223129436 -25.91924012808218
ltibia 49.73481319993558
lfoot 1.7609127145052774 -10.008033337014114
ltoes -11.316559500189872
rfemur -19.810551317881973 -0.2072474421387458 27.513824641456605
rtibia 82.17836095808543
rfoot 13.010462044840526 -8.952314717968617
rtoes 10.191910123064996
lowerback 15.538772608941256 1.5988018412272367 2.0647462046995875
upperback -1.2058128620478032 2.318702113829052 0.2439907481456336
thorax -8.619075827949018 1.3992671342451877 -1.6169408902794404
lowerneck -18.97360217790204 -4.004150781838683 -2.9738373261135287
upperneck 10.808329145214666 -6.955295943906686 4.021834715646904
head 6.929151428410487 -2.892048390332004 0.6800986046027493
lclavicle -6.51635922382148e-16 -4.8741519348806266e-15
lhumerus -60.403644113321775 -8.587117400280782 94.22816311074524
lradius 110.29038009777781
lwrist 27.133233864609537
lhand -31.206827858773902 1.017236425202918
lfingers 7.125019999999998
lthumb -4.695848750492725 30.77951900695968
rclavicle -6.488437128927741e-16 -4.861470340226142e-15
rhumerus -51.90021679356119 12.10277911326198 -97.95773143917063
rradius 122.80879868617232
rwrist -15.6195359420546
rhand -18.132902172058465 37.59493311855542
rfingers 7.125019999999998
rthumb 8.047297241655846 8.02117871920716
60
root -0.5949605497230291 17.688581391895035 18.92885530607485 3.754110636876861 1.1366214900790503 -0.309110655730366
lfemur -15.952423899073231 0.27947941430073153 -26.65266886084074
ltibia 50.835962115751
lfoot 1.9796048400851007 -9.99290099028118
ltoes -10.658606022381154
rfemur -21.544496173556126 -0.17144350326385593 27.26611824625307
rtibia 98.05290067346888
rfoot 12.642525021412212 -9.082971872682933
rtoes 7.646152818492757
lowerback 16.037279573335088 1.4377861991933252 1.4418654611713428
upperback -0.9557979777728862 2.0109442966329025 0.09981021783027244
thorax -8.673175918368534 1.3871274594043275 -1.4861794751560509
lowerneck -18.928913838423565 -3.961040323583882 -2.981663754820277
upperneck 10.775366927051365 -6.891994416809576 4.1312660955798
head 6.918090590710044 -2.8162624018188267 0.7146048035820601
lclavicle -6.516360119614462e-16 -4.8741523724611475e-15
lhumerus -58.49178024601005 -9.569502211330942 94.87440051226574
lradius 112.19434604515521
lwrist 27.342172187948393
lhand -31.222059082437532 1.0419161758783104
lfingers 7.125019999999998
lthumb -4.70260900832963 30.833747265636795
rclavicle -6.488436805823173e-16 -4.861470315910949e-15
rhumerus -52.43902283440232 12.000746800273195 -97.65923091591016
rradius 121.18897565659067
rwrist -15.062976313480263
rhand -18.153626103697857 37.62355010854585
rfingers 7.125019999999998
rthumb 8.067156368843564 8.112288940888341
